<svg xmlns="http://www.w3.org/2000/svg" xmlns:xlink="http://www.w3.org/1999/xlink" width="295" zoomAndPan="magnify" viewBox="0 0 221.25 189.000001" height="252" preserveAspectRatio="xMidYMid meet" version="1.0"><defs><clipPath id="8fe05eac9c"><path d="M 0.210938 89 L 99 89 L 99 187 L 0.210938 187 Z M 0.210938 89 " clip-rule="nonzero"/></clipPath></defs><g clip-path="url(#8fe05eac9c)"><path fill="#d0ebc8" d="M 44.382812 167.203125 C 42.585938 170.367188 40.917969 173.796875 38.808594 176.929688 C 33.996094 184.070312 27.0625 187.109375 18.546875 186.421875 C 10.625 185.785156 5.746094 177.613281 7.742188 168.757812 C 9.449219 161.171875 13.8125 155.164062 19 149.652344 C 20.109375 148.472656 21.582031 147.628906 22.890625 146.632812 C 22.648438 146.261719 22.40625 145.890625 22.164062 145.519531 C 20 145.085938 17.8125 144.742188 15.675781 144.207031 C 7.3125 142.128906 1.367188 135.375 0.898438 128.339844 C 0.203125 117.957031 9.34375 112.945312 17.660156 114.558594 C 23.546875 115.699219 29.28125 117.621094 35.359375 119.269531 C 35.8125 115.6875 36.019531 111.65625 36.886719 107.773438 C 38.253906 101.644531 40.761719 96.050781 46.234375 92.292969 C 55.691406 85.804688 64.359375 89.496094 66.914062 101.539062 C 68.371094 108.382812 66.351562 114.640625 63.46875 121.378906 C 65.15625 121.25 66.472656 121.191406 67.78125 121.042969 C 75.214844 120.195312 82.480469 120.464844 89.453125 123.632812 C 101.964844 129.3125 100.726562 142.753906 91.410156 149.847656 C 87.207031 153.050781 82.375 155.070312 76.871094 155.054688 C 75.371094 155.050781 73.867188 155.589844 72.773438 155.796875 C 73.242188 159.644531 73.859375 163.25 74.085938 166.878906 C 74.4375 172.558594 72.039062 176.996094 66.742188 179.160156 C 61.457031 181.316406 56.285156 180.203125 52.164062 176.289062 C 49.277344 173.550781 46.941406 170.234375 44.382812 167.203125 Z M 54.75 136.785156 C 61.128906 145.109375 77.0625 145.199219 83.441406 140.972656 C 84.890625 140.011719 85.773438 138.195312 86.914062 136.769531 C 85.507812 135.664062 84.261719 134.046875 82.660156 133.539062 C 72.933594 130.4375 63.890625 133.339844 54.75 136.785156 Z M 37.183594 150.296875 C 30.898438 155.015625 24.777344 159.847656 21.488281 167.171875 C 20.597656 169.15625 20.675781 171.570312 20.3125 173.789062 C 22.78125 173.015625 26.128906 173.003906 27.566406 171.34375 C 32.738281 165.375 35.375 158.011719 37.183594 150.296875 Z M 54.183594 100.261719 C 48.066406 102.546875 43.988281 113.683594 45.882812 122.9375 C 53.714844 117.0625 57.734375 106.082031 54.183594 100.261719 Z M 31.050781 134.058594 C 31.21875 133.339844 31.386719 132.621094 31.554688 131.902344 C 26.226562 130.097656 20.910156 128.25 15.550781 126.542969 C 14.941406 126.351562 13.714844 126.730469 13.445312 127.21875 C 13.152344 127.742188 13.386719 128.976562 13.851562 129.417969 C 14.949219 130.453125 16.21875 131.6875 17.597656 131.96875 C 22.039062 132.878906 26.558594 133.390625 31.050781 134.058594 Z M 52.96875 152.003906 C 55.242188 158.210938 55.714844 164.507812 61.886719 168.078125 C 63.300781 162.695312 58.65625 153.933594 52.96875 152.003906 Z M 52.96875 152.003906 " fill-opacity="1" fill-rule="nonzero"/></g><path fill="#fed7fe" d="M 183.328125 119.628906 C 187.914062 117.65625 192.015625 115.417969 196.398438 114.160156 C 199.695312 113.214844 203.496094 112.777344 206.820312 113.417969 C 216.394531 115.257812 220.273438 123.558594 216.128906 132.375 C 213.082031 138.855469 208.285156 143.601562 202.53125 145.945312 C 203.605469 150.964844 205.253906 155.570312 205.40625 160.226562 C 205.582031 165.585938 203.144531 170.488281 198.902344 173.976562 C 194.28125 177.78125 189.675781 178.046875 184.472656 173.425781 C 181.585938 170.863281 179.277344 167.648438 177.179688 165.265625 C 173.886719 169.867188 170.71875 174.820312 167.003906 179.324219 C 164.230469 182.691406 160.113281 183.921875 155.992188 182.1875 C 151.824219 180.4375 149.933594 176.765625 149.632812 172.21875 C 149.15625 164.949219 150.695312 158.0625 153.234375 151.324219 C 153.511719 150.585938 153.671875 149.800781 153.929688 148.878906 C 149.820312 148.46875 145.902344 148.386719 142.121094 147.628906 C 136.84375 146.574219 132.332031 144.0625 129.246094 139.371094 C 124.695312 132.46875 126.859375 124.960938 134.886719 122.75 C 139.675781 121.429688 144.953125 121.722656 150.015625 121.613281 C 152.214844 121.566406 154.433594 122.332031 156.984375 122.789062 C 156.65625 119.375 156.449219 116.144531 156.019531 112.945312 C 154.542969 101.9375 157.863281 92.59375 165.734375 84.839844 C 171.109375 79.546875 178.617188 80.644531 182.691406 87.074219 C 186.421875 92.964844 186.851562 99.375 185.902344 105.972656 C 185.25 110.488281 184.222656 114.949219 183.328125 119.628906 Z M 172.691406 92.058594 C 163.164062 99.539062 163.46875 116.960938 167.929688 125.476562 C 173.90625 119.332031 177.152344 97.332031 172.691406 92.058594 Z M 206.160156 125.355469 C 200.449219 124.199219 188.203125 129.8125 185.839844 134.496094 C 189.816406 136.425781 198.015625 136.144531 201.15625 133.691406 C 203.835938 131.601562 206.265625 129.191406 206.160156 125.355469 Z M 183.070312 146.640625 C 182.625 151.472656 188.421875 162.675781 192.359375 164.585938 C 197.101562 158.078125 191.78125 147.800781 183.070312 146.640625 Z M 160.765625 170.066406 C 167.347656 163.515625 169.105469 155.304688 169.019531 145.445312 C 163.488281 153.371094 161.410156 161.472656 160.765625 170.066406 Z M 155.726562 135.582031 C 150.621094 133.988281 145.578125 131.867188 140.09375 133.679688 C 144.882812 138.097656 150.242188 137.410156 155.726562 135.582031 Z M 155.726562 135.582031 " fill-opacity="1" fill-rule="nonzero"/><path fill="#fecfa7" d="M 103.164062 23.96875 C 106.542969 19.125 109.96875 13.226562 114.414062 8.234375 C 116.863281 5.484375 120.835938 3.6875 124.457031 2.457031 C 131.359375 0.113281 137.347656 6.175781 135.992188 13.320312 C 134.679688 20.25 132.222656 26.960938 130.253906 33.816406 C 133.304688 34.503906 136.929688 34.980469 140.296875 36.183594 C 143.042969 37.164062 145.914062 38.5625 147.96875 40.558594 C 153.039062 45.480469 153.4375 51.757812 145.855469 56.945312 C 140.667969 60.496094 134.707031 61.496094 128.996094 61.394531 C 129.828125 65.800781 130.980469 70.109375 131.382812 74.492188 C 131.929688 80.472656 129.464844 85.292969 123.875 87.851562 C 118.105469 90.492188 113.019531 88.246094 109.023438 84.125 C 105.414062 80.402344 102.496094 76.011719 99.253906 71.886719 C 97.164062 74.355469 95.007812 77.164062 92.578125 79.71875 C 89.035156 83.445312 84.667969 85.011719 79.640625 83.277344 C 74.59375 81.539062 71.84375 77.65625 70.523438 72.632812 C 68.070312 63.28125 75.234375 54.152344 83.191406 49.683594 C 84.527344 48.933594 85.910156 48.269531 87.488281 47.453125 C 80.636719 42.183594 74.5 36.578125 70.667969 28.945312 C 68.160156 23.945312 65.734375 18.957031 66.148438 13.054688 C 66.5 8.042969 69.90625 4.414062 74.945312 4.089844 C 81.773438 3.65625 87.363281 6.609375 91.984375 11.039062 C 96.226562 15.105469 99.726562 19.9375 103.164062 23.96875 Z M 107.070312 58.472656 C 107.042969 58.386719 107.03125 58.292969 106.980469 58.222656 C 106.949219 58.183594 106.863281 58.183594 106.800781 58.164062 C 106.894531 58.261719 106.988281 58.363281 107.082031 58.460938 C 108.796875 65.949219 112.589844 72.085938 118.695312 77.015625 C 121.75 70.914062 115.496094 61.347656 107.070312 58.472656 Z M 75.5 14.574219 C 78.105469 26.65625 84.871094 35.414062 94.726562 42.667969 C 95.503906 28.976562 85.207031 13.957031 75.5 14.574219 Z M 111.351562 38.914062 C 118.648438 32.742188 121.25 23.988281 123.796875 15.199219 C 116.199219 21.183594 113.199219 29.695312 111.351562 38.914062 Z M 92.476562 59.351562 C 92.136719 59.078125 91.800781 58.804688 91.464844 58.53125 C 90.292969 58.964844 89.011719 59.222656 87.976562 59.871094 C 84.410156 62.117188 80.984375 64.589844 81.328125 69.480469 C 81.402344 70.527344 82.214844 71.527344 82.6875 72.546875 C 83.582031 72.105469 84.847656 71.898438 85.3125 71.179688 C 87.808594 67.304688 90.109375 63.308594 92.476562 59.351562 Z M 137.355469 47.585938 C 133.269531 44.882812 127.140625 44.832031 121.355469 47.445312 C 127.738281 49.796875 133.316406 49.847656 137.355469 47.585938 Z M 137.355469 47.585938 " fill-opacity="1" fill-rule="nonzero"/></svg>