<svg xmlns="http://www.w3.org/2000/svg" xmlns:xlink="http://www.w3.org/1999/xlink" width="236" zoomAndPan="magnify" viewBox="0 0 177 242.999999" height="324" preserveAspectRatio="xMidYMid meet" version="1.0"><path fill="#2b2f30" d="M 145.695312 180.367188 C 145.695312 180.367188 142.105469 211.386719 133.386719 226.910156 C 136.808594 230.832031 137.320312 242.09375 113.730469 236.976562 C 104.15625 234.757812 102.332031 231.6875 102.816406 224.179688 C 103.300781 216.675781 101.648438 201.023438 100.9375 198.457031 C 100.222656 195.890625 145.695312 180.367188 145.695312 180.367188 Z M 42.078125 180.367188 C 42.078125 180.367188 45.667969 211.386719 54.386719 226.910156 C 50.96875 230.832031 50.453125 242.09375 74.046875 236.976562 C 83.617188 234.757812 85.441406 231.6875 84.957031 224.179688 C 84.472656 216.675781 86.125 201.023438 86.839844 198.457031 C 87.550781 195.890625 42.078125 180.367188 42.078125 180.367188 Z M 22.109375 197.027344 C 29.992188 198.441406 35.835938 188.660156 40.664062 178.453125 C 100.9375 159.386719 152.03125 123.339844 151.980469 123.167969 C 157.363281 110.074219 166.089844 95.902344 170.570312 81.601562 C 176.980469 61.128906 173.363281 46.828125 159.257812 43.503906 C 145.15625 40.175781 134.414062 78.019531 134.414062 78.019531 C 125.003906 98.324219 113.816406 105.675781 108.589844 108.144531 C 107.605469 108.472656 106.613281 108.847656 105.613281 109.285156 C 79.632812 120.59375 37.832031 107.925781 37.832031 107.925781 C 28.253906 118.589844 17.207031 138.460938 10.796875 158.929688 C 4.386719 179.402344 6.570312 194.242188 22.109375 197.027344 Z M 22.109375 197.027344 " fill-opacity="1" fill-rule="nonzero"/><path fill="#f9f1e9" d="M 62.273438 125.953125 C 75.148438 127.859375 97.964844 130.871094 115.949219 116.910156 C 134.414062 102.582031 149.671875 116.660156 151.980469 123.167969 C 152.03125 123.339844 161.808594 156.890625 145.695312 180.367188 C 129.988281 203.257812 61.199219 208.964844 40.664062 178.453125 C 27.054688 147.957031 40.390625 122.710938 62.273438 125.953125 Z M 16.582031 64.1875 C 11.699219 95.054688 39.371094 126.050781 91.589844 113.472656 C 138.515625 102.167969 146.53125 63.566406 129.671875 38.660156 C 136.117188 31.410156 98.671875 11.035156 95.691406 17.117188 C 68.261719 12.089844 48.980469 20.800781 37.710938 29.792969 C 30.148438 23.851562 10.429688 61.09375 16.582031 64.1875 Z M 16.582031 64.1875 " fill-opacity="1" fill-rule="nonzero"/><path fill="#2b2f30" d="M 95.691406 17.117188 C 98.671875 11.035156 106.675781 0.109375 123.503906 8.261719 C 138.707031 15.625 136.117188 31.410156 129.671875 38.660156 C 118.773438 22.96875 95.691406 17.117188 95.691406 17.117188 Z M 37.710938 29.792969 C 30.148438 23.851562 15.140625 21.941406 8.023438 36.601562 C 0.0078125 53.101562 10.429688 61.09375 16.582031 64.1875 C 21.0625 43.449219 37.710938 29.792969 37.710938 29.792969 Z M 90.507812 64.1875 C 100.320312 74.6875 115.621094 75.648438 119.796875 68.808594 C 123.773438 62.296875 122.125 55.117188 114.664062 44.964844 C 106.414062 33.738281 96.476562 34.445312 91.589844 37.332031 C 84.667969 41.429688 80.691406 53.6875 90.507812 64.1875 Z M 62.269531 71.875 C 56.222656 84.90625 41.984375 90.578125 35.878906 85.375 C 30.070312 80.425781 29.390625 73.089844 33.308594 61.125 C 37.644531 47.890625 47.308594 45.472656 52.851562 46.699219 C 60.707031 48.433594 68.3125 58.847656 62.269531 71.875 Z M 62.269531 71.875 " fill-opacity="1" fill-rule="nonzero"/><path fill="#f1f1f2" d="M 61.390625 62.914062 C 61.648438 52.550781 54.199219 49.484375 49.707031 49.546875 C 45.21875 49.609375 37.574219 51.277344 37.636719 62.078125 C 37.707031 73.246094 44.265625 76.113281 49.917969 75.78125 C 54.769531 75.5 61.132812 73.277344 61.390625 62.914062 Z M 102.375 64.105469 C 107.871094 62.929688 113.382812 58.453125 110.484375 47.75 C 107.679688 37.402344 99.921875 37.828125 95.613281 38.953125 C 91.300781 40.082031 84.988281 44.984375 87.984375 54.828125 C 90.984375 64.675781 97.660156 65.117188 102.375 64.105469 Z M 102.375 64.105469 " fill-opacity="1" fill-rule="nonzero"/><path fill="#2b2f30" d="M 61.429688 83.808594 C 61.324219 83.5 61.492188 83.167969 61.800781 83.0625 C 62.101562 82.960938 62.445312 83.121094 62.550781 83.429688 C 62.644531 83.707031 64.953125 90.175781 73.144531 87.597656 C 78.882812 85.789062 79.085938 80.828125 78.757812 78.210938 C 78.464844 77.199219 78.378906 76.484375 78.375 76.457031 C 78.34375 76.171875 78.523438 75.921875 78.792969 75.839844 C 78.804688 75.835938 78.8125 75.828125 78.824219 75.824219 C 78.839844 75.820312 78.851562 75.824219 78.863281 75.820312 C 78.875 75.816406 78.886719 75.808594 78.898438 75.808594 C 78.914062 75.804688 78.925781 75.8125 78.941406 75.8125 C 79.21875 75.785156 79.480469 75.945312 79.5625 76.214844 C 79.570312 76.242188 79.769531 76.933594 79.898438 77.980469 C 80.621094 80.515625 82.753906 85 88.746094 84.425781 C 97.28125 83.605469 96.878906 76.75 96.859375 76.457031 C 96.832031 76.132812 97.078125 75.847656 97.402344 75.824219 C 97.730469 75.796875 98.015625 76.042969 98.039062 76.367188 C 98.046875 76.445312 98.511719 83.726562 90.46875 85.363281 C 89.964844 85.464844 89.429688 85.546875 88.859375 85.601562 C 83.984375 86.070312 81.34375 83.554688 79.929688 81.042969 C 79.613281 83.90625 78.171875 87.25 73.5 88.722656 C 72.953125 88.894531 72.425781 89.03125 71.925781 89.132812 C 63.882812 90.769531 61.453125 83.882812 61.429688 83.808594 Z M 61.429688 83.808594 C 61.324219 83.5 61.492188 83.167969 61.800781 83.0625 C 62.101562 82.960938 62.445312 83.121094 62.550781 83.429688 C 62.644531 83.707031 64.953125 90.175781 73.144531 87.597656 C 78.882812 85.789062 79.085938 80.828125 78.757812 78.210938 C 78.464844 77.199219 78.378906 76.484375 78.375 76.457031 C 78.34375 76.171875 78.523438 75.921875 78.792969 75.839844 C 78.804688 75.835938 78.8125 75.828125 78.824219 75.824219 C 78.839844 75.820312 78.851562 75.824219 78.863281 75.820312 C 78.875 75.816406 78.886719 75.808594 78.898438 75.808594 C 78.914062 75.804688 78.925781 75.8125 78.941406 75.8125 C 79.21875 75.785156 79.480469 75.945312 79.5625 76.214844 C 79.570312 76.242188 79.769531 76.933594 79.898438 77.980469 C 80.621094 80.515625 82.753906 85 88.746094 84.425781 C 97.28125 83.605469 96.878906 76.75 96.859375 76.457031 C 96.832031 76.132812 97.078125 75.847656 97.402344 75.824219 C 97.730469 75.796875 98.015625 76.042969 98.039062 76.367188 C 98.046875 76.445312 98.511719 83.726562 90.46875 85.363281 C 89.964844 85.464844 89.429688 85.546875 88.859375 85.601562 C 83.984375 86.070312 81.34375 83.554688 79.929688 81.042969 C 79.613281 83.90625 78.171875 87.25 73.5 88.722656 C 72.953125 88.894531 72.425781 89.03125 71.925781 89.132812 C 63.882812 90.769531 61.453125 83.882812 61.429688 83.808594 Z M 61.429688 83.808594 " fill-opacity="1" fill-rule="nonzero"/><path fill="#231f20" d="M 44.007812 61.757812 C 43.910156 52.972656 49.867188 51.648438 53.371094 51.621094 C 54.714844 51.609375 56.402344 51.984375 57.964844 52.917969 C 60.050781 54.667969 61.75 58.253906 61.632812 62.964844 C 61.546875 66.5625 60.476562 69.394531 59.234375 71.019531 C 57.542969 72.398438 55.460938 72.859375 53.648438 72.960938 C 49.242188 73.203125 44.109375 70.84375 44.007812 61.757812 Z M 98.058594 62.390625 C 96.296875 62.773438 94.183594 62.882812 92.199219 62.011719 C 90.507812 60.921875 88.800781 58.359375 87.761719 54.941406 C 86.398438 50.46875 87.046875 46.640625 88.609375 44.363281 C 89.855469 43.054688 91.371094 42.25 92.660156 41.90625 C 96.019531 41.007812 102.070312 40.699219 104.304688 49.128906 C 106.621094 57.84375 102.339844 61.460938 98.058594 62.390625 Z M 31.609375 35.855469 C 27.011719 32.242188 17.886719 31.082031 13.558594 39.996094 C 8.6875 50.027344 15.023438 54.886719 18.761719 56.769531 C 22.804688 45.585938 31.609375 35.855469 31.609375 35.855469 Z M 123.871094 32.070312 C 127.457031 27.453125 128.550781 18.339844 119.585938 14.085938 C 109.496094 9.296875 104.675781 15.75 102.816406 19.496094 C 114.027344 23.757812 123.871094 32.070312 123.871094 32.070312 Z M 127.644531 238.058594 C 130.4375 231.71875 126.105469 228.953125 125.914062 228.835938 C 125.605469 228.648438 125.503906 228.25 125.6875 227.941406 C 125.875 227.628906 126.277344 227.527344 126.585938 227.714844 C 126.640625 227.746094 131.742188 230.882812 129.179688 237.761719 C 128.972656 237.871094 127.972656 238.042969 127.644531 238.058594 Z M 120.601562 238.09375 C 123.171875 231.796875 119.035156 228.035156 118.992188 227.996094 C 118.722656 227.757812 118.308594 227.78125 118.066406 228.050781 C 117.828125 228.320312 117.851562 228.734375 118.121094 228.972656 C 118.277344 229.113281 121.738281 232.324219 119.242188 237.941406 C 119.457031 237.992188 120.320312 238.089844 120.601562 238.09375 Z M 60.054688 238.046875 C 57.261719 231.703125 61.609375 228.949219 61.796875 228.835938 C 62.105469 228.648438 62.203125 228.246094 62.019531 227.9375 C 61.832031 227.628906 61.433594 227.527344 61.121094 227.714844 C 61.070312 227.746094 55.976562 230.878906 58.523438 237.746094 C 58.765625 237.828125 59.898438 238.039062 60.054688 238.046875 Z M 68.46875 237.949219 C 65.953125 232.285156 69.550781 229.007812 69.585938 228.976562 C 69.859375 228.734375 69.882812 228.320312 69.640625 228.050781 C 69.402344 227.78125 68.988281 227.757812 68.714844 227.996094 C 68.671875 228.035156 64.535156 231.800781 67.113281 238.101562 C 67.332031 238.113281 68.207031 238.027344 68.46875 237.949219 Z M 154.171875 53.914062 C 153.851562 53.746094 153.726562 53.351562 153.894531 53.03125 C 156.171875 48.683594 159.539062 45.164062 160.792969 43.929688 C 161.078125 43.996094 161.871094 44.3125 162.164062 44.425781 C 162.121094 44.46875 157.746094 48.511719 155.054688 53.636719 C 154.9375 53.859375 154.710938 53.988281 154.472656 53.988281 C 154.371094 53.988281 154.269531 53.964844 154.171875 53.914062 Z M 164.144531 59.105469 C 163.800781 58.996094 163.613281 58.625 163.722656 58.28125 C 165.890625 51.621094 166.667969 47.253906 166.675781 47.210938 C 167.007812 47.390625 167.542969 47.886719 167.789062 48.3125 C 167.46875 49.867188 166.625 53.597656 164.96875 58.6875 C 164.878906 58.964844 164.625 59.140625 164.347656 59.140625 C 164.28125 59.140625 164.210938 59.128906 164.144531 59.105469 Z M 26.613281 186.324219 C 26.941406 186.472656 27.089844 186.859375 26.941406 187.191406 C 24.921875 191.664062 21.765625 195.382812 20.585938 196.691406 C 20.300781 196.640625 19.480469 196.390625 19.179688 196.289062 C 19.222656 196.25 23.363281 191.929688 25.746094 186.652344 C 25.847656 186.421875 26.070312 186.28125 26.304688 186.269531 C 26.40625 186.261719 26.511719 186.28125 26.613281 186.324219 Z M 16.285156 181.820312 C 16.636719 181.910156 16.847656 182.269531 16.757812 182.617188 C 14.988281 189.394531 14.476562 193.769531 14.46875 193.8125 C 14.085938 193.589844 13.558594 193.074219 13.289062 192.773438 C 13.515625 191.203125 14.136719 187.464844 15.488281 182.289062 C 15.5625 182.007812 15.808594 181.816406 16.082031 181.800781 C 16.148438 181.796875 16.21875 181.804688 16.285156 181.820312 Z M 76.824219 66.992188 C 74.589844 67.621094 67.683594 68.902344 69.816406 72.984375 C 70.765625 74.808594 76.054688 78.300781 78.832031 77.570312 C 82.289062 76.660156 85.417969 71.628906 85.582031 69.894531 C 85.855469 67.023438 81.878906 65.574219 76.824219 66.992188 Z M 76.824219 66.992188 " fill-opacity="1" fill-rule="nonzero"/></svg>