<svg xmlns="http://www.w3.org/2000/svg" xmlns:xlink="http://www.w3.org/1999/xlink" width="79" zoomAndPan="magnify" viewBox="0 0 59.25 65.25" height="87" preserveAspectRatio="xMidYMid meet" version="1.0"><defs><clipPath id="257fa27a8b"><path d="M 0 0.0390625 L 58.507812 0.0390625 L 58.507812 59 L 0 59 Z M 0 0.0390625 " clip-rule="nonzero"/></clipPath><clipPath id="33a84c8312"><path d="M 12 42 L 47 42 L 47 64.472656 L 12 64.472656 Z M 12 42 " clip-rule="nonzero"/></clipPath></defs><g clip-path="url(#257fa27a8b)"><path fill="#78d1cc" d="M 58.511719 29.386719 C 58.511719 45.59375 45.417969 58.726562 29.265625 58.726562 C 13.109375 58.726562 0.015625 45.59375 0.015625 29.386719 C 0.015625 13.183594 13.109375 0.046875 29.265625 0.046875 C 45.417969 0.046875 58.511719 13.183594 58.511719 29.386719 " fill-opacity="1" fill-rule="nonzero"/></g><path fill="#ed451d" d="M 29.433594 54.558594 C 27.652344 54.558594 25.886719 54.226562 24.21875 53.609375 C 22.921875 53.128906 21.6875 52.097656 20.273438 52.171875 C 17.679688 52.316406 14.328125 52.542969 13.394531 49.328125 C 12.472656 46.140625 15.949219 44.085938 16.214844 41.113281 C 16.460938 38.367188 12.226562 37.664062 13.34375 34.664062 C 13.589844 34.007812 14.140625 33.417969 14.230469 32.703125 C 14.339844 31.90625 14 31.21875 13.875 30.460938 C 13.46875 27.925781 15.492188 24.394531 17.527344 22.996094 C 20.242188 21.132812 23.601562 20.699219 26.757812 20.089844 C 30.898438 19.292969 35.398438 18.09375 39.304688 19.8125 C 41.492188 20.773438 44.222656 21.703125 44.925781 24.179688 C 45.675781 26.800781 46.65625 29.464844 45.148438 32.027344 C 44.296875 33.472656 42.824219 34.085938 43.382812 35.898438 C 43.792969 37.242188 45.199219 38.03125 45.539062 39.425781 C 46.3125 42.582031 41.671875 43.351562 42.957031 46.320312 C 43.621094 47.847656 44.558594 48.738281 43.960938 50.546875 C 43.527344 51.863281 42.410156 52.511719 41.074219 52.597656 C 40.039062 52.664062 39.058594 52.300781 38.007812 52.480469 C 37.28125 52.605469 36.699219 52.941406 36.023438 53.21875 C 33.964844 54.0625 31.660156 54.558594 29.433594 54.558594 " fill-opacity="1" fill-rule="nonzero"/><g clip-path="url(#33a84c8312)"><path fill="#ffffff" d="M 46.328125 58.808594 C 44.882812 59.890625 43.328125 60.839844 41.6875 61.632812 C 41.4375 61.753906 41.1875 61.871094 40.9375 61.984375 C 37.371094 63.589844 33.421875 64.480469 29.265625 64.480469 C 25.105469 64.480469 21.15625 63.589844 17.59375 61.984375 C 17.339844 61.871094 17.085938 61.753906 16.839844 61.632812 C 15.199219 60.839844 13.644531 59.890625 12.199219 58.808594 C 12.453125 53.136719 15.457031 48.179688 19.90625 45.253906 C 22.59375 43.488281 25.808594 42.457031 29.265625 42.457031 C 29.792969 42.457031 30.3125 42.484375 30.824219 42.53125 C 33.6875 42.789062 36.34375 43.753906 38.621094 45.253906 C 40.667969 46.601562 42.410156 48.378906 43.71875 50.457031 C 45.253906 52.894531 46.191406 55.746094 46.328125 58.808594 " fill-opacity="1" fill-rule="nonzero"/></g><path fill="#fbd5c0" d="M 38.621094 45.253906 C 38.359375 47.234375 37.492188 49.023438 36.203125 50.417969 C 34.480469 52.292969 32.007812 53.46875 29.265625 53.46875 C 24.867188 53.46875 21.171875 50.449219 20.125 46.367188 C 20.03125 46.003906 19.957031 45.632812 19.90625 45.253906 C 22.59375 43.488281 25.808594 42.457031 29.265625 42.457031 C 29.792969 42.457031 30.3125 42.480469 30.828125 42.53125 C 30.914062 42.539062 31.003906 42.546875 31.09375 42.554688 C 31.148438 42.5625 31.203125 42.566406 31.257812 42.574219 C 31.320312 42.582031 31.382812 42.589844 31.441406 42.597656 C 31.476562 42.601562 31.515625 42.605469 31.554688 42.613281 C 31.609375 42.617188 31.664062 42.625 31.71875 42.632812 C 31.761719 42.640625 31.804688 42.648438 31.851562 42.652344 C 31.886719 42.660156 31.925781 42.664062 31.960938 42.671875 C 32.027344 42.679688 32.085938 42.691406 32.152344 42.703125 C 32.421875 42.75 32.691406 42.800781 32.960938 42.859375 L 33.136719 42.898438 C 33.171875 42.910156 33.207031 42.917969 33.242188 42.925781 C 33.304688 42.941406 33.367188 42.957031 33.429688 42.972656 C 33.441406 42.972656 33.449219 42.976562 33.457031 42.976562 C 33.539062 43 33.617188 43.019531 33.695312 43.042969 C 33.78125 43.0625 33.867188 43.085938 33.949219 43.109375 C 34.042969 43.136719 34.136719 43.164062 34.230469 43.191406 C 34.304688 43.214844 34.375 43.238281 34.449219 43.261719 C 34.496094 43.277344 34.542969 43.292969 34.589844 43.308594 C 34.664062 43.332031 34.742188 43.355469 34.816406 43.382812 C 34.910156 43.414062 35 43.445312 35.089844 43.480469 C 35.097656 43.484375 35.105469 43.488281 35.109375 43.488281 C 35.207031 43.523438 35.296875 43.558594 35.390625 43.59375 C 35.460938 43.621094 35.53125 43.648438 35.601562 43.675781 C 35.785156 43.75 35.96875 43.828125 36.144531 43.90625 L 36.378906 44.011719 C 36.449219 44.042969 36.523438 44.078125 36.59375 44.109375 C 36.65625 44.140625 36.722656 44.171875 36.785156 44.203125 C 36.84375 44.230469 36.902344 44.261719 36.960938 44.292969 C 36.996094 44.308594 37.035156 44.328125 37.074219 44.347656 C 37.226562 44.429688 37.378906 44.511719 37.527344 44.59375 C 37.582031 44.621094 37.636719 44.652344 37.691406 44.683594 C 37.726562 44.703125 37.757812 44.722656 37.792969 44.742188 L 37.917969 44.816406 L 38.046875 44.894531 L 38.132812 44.945312 C 38.210938 44.992188 38.289062 45.039062 38.367188 45.089844 C 38.453125 45.144531 38.535156 45.199219 38.621094 45.253906 " fill-opacity="1" fill-rule="nonzero"/><path fill="#fbd5c0" d="M 32.554688 38.621094 L 32.554688 45.109375 C 32.554688 46.75 31.214844 48.097656 29.578125 48.097656 L 28.949219 48.097656 C 27.3125 48.097656 25.976562 46.75 25.976562 45.109375 L 25.976562 38.621094 C 25.976562 36.976562 27.3125 35.632812 28.949219 35.632812 L 29.578125 35.632812 C 31.214844 35.632812 32.554688 36.976562 32.554688 38.621094 " fill-opacity="1" fill-rule="nonzero"/><path fill="#f8a29e" d="M 32.554688 38.621094 L 32.554688 42.054688 C 31.574219 42.597656 30.539062 42.917969 29.484375 42.917969 C 28.242188 42.917969 27.058594 42.570312 25.976562 41.964844 L 25.976562 38.621094 C 25.976562 36.976562 27.3125 35.632812 28.949219 35.632812 L 29.578125 35.632812 C 31.214844 35.632812 32.554688 36.976562 32.554688 38.621094 " fill-opacity="1" fill-rule="nonzero"/><path fill="#fbd5c0" d="M 39.40625 34.59375 C 39.40625 34.59375 41.351562 33.929688 42.597656 31.753906 C 43.949219 29.386719 43.101562 27.914062 42.832031 27.59375 C 42.101562 26.722656 40.96875 27.28125 40.78125 27.59375 C 40.597656 27.90625 37.898438 32.820312 39.40625 34.59375 " fill-opacity="1" fill-rule="nonzero"/><path fill="#f8a29e" d="M 41.3125 28.367188 C 41.3125 28.367188 42.550781 28.527344 42.117188 30.269531 C 41.679688 32.015625 40.539062 32.703125 38.984375 33.597656 C 37.433594 34.488281 39.761719 28.722656 41.3125 28.367188 " fill-opacity="1" fill-rule="nonzero"/><path fill="#fbd5c0" d="M 19.628906 34.59375 C 19.628906 34.59375 17.679688 33.929688 16.4375 31.753906 C 15.082031 29.386719 15.933594 27.914062 16.199219 27.59375 C 16.933594 26.722656 18.0625 27.28125 18.25 27.59375 C 18.4375 27.90625 21.132812 32.820312 19.628906 34.59375 " fill-opacity="1" fill-rule="nonzero"/><path fill="#f8a29e" d="M 17.71875 28.367188 C 17.71875 28.367188 16.484375 28.527344 16.917969 30.269531 C 17.351562 32.015625 18.496094 32.703125 20.046875 33.597656 C 21.601562 34.488281 19.273438 28.722656 17.71875 28.367188 " fill-opacity="1" fill-rule="nonzero"/><path fill="#fbd5c0" d="M 41.3125 27.21875 C 41.3125 20.058594 36.046875 14.25 29.542969 14.25 C 23.042969 14.25 17.769531 20.058594 17.769531 27.21875 C 17.769531 34.378906 23.042969 41.863281 29.542969 41.863281 C 35.652344 41.863281 41.3125 34.320312 41.3125 27.21875 " fill-opacity="1" fill-rule="nonzero"/><path fill="#ed451d" d="M 44.351562 24.78125 C 44.902344 23.484375 44.53125 21.90625 44.261719 20.628906 C 43.6875 17.925781 41.921875 15.355469 39.023438 14.769531 C 37.640625 14.488281 36.257812 14.203125 35.023438 13.339844 C 33.894531 12.554688 32.824219 11.5 31.554688 10.960938 C 29.070312 9.90625 25.824219 10.632812 25.171875 13.574219 C 25.140625 13.695312 25.117188 13.828125 25.09375 13.964844 L 25.058594 13.550781 C 24.847656 15.167969 24.855469 16.273438 25.824219 17.65625 C 26.824219 19.078125 28.144531 19.351562 29.710938 19.523438 C 33.066406 19.894531 33.800781 22.058594 34.667969 24.855469 C 35.222656 26.644531 36.578125 28.632812 38.652344 28.222656 C 39.625 28.03125 40.476562 27.464844 41.421875 27.261719 C 42.46875 27.035156 42.828125 27.695312 43.570312 28.300781 C 43.5625 27.691406 43.257812 26.929688 43.421875 26.371094 C 43.582031 25.8125 44.125 25.320312 44.351562 24.78125 " fill-opacity="1" fill-rule="nonzero"/><path fill="#ed451d" d="M 26.546875 15.789062 C 26.347656 15.210938 25.945312 14.582031 25.527344 14.113281 C 24.980469 13.507812 25.171875 13.574219 24.496094 13.367188 C 23.292969 12.914062 22.40625 12.648438 21.144531 13.386719 C 20.097656 14.003906 19.546875 15.015625 19.261719 16.148438 C 18.898438 17.601562 18.539062 18.308594 17.328125 19.34375 C 16.367188 20.164062 15.703125 21.15625 15.253906 22.332031 C 14.730469 23.695312 14.386719 25.320312 14.441406 26.816406 C 14.476562 27.8125 14.730469 29.984375 15.445312 30.636719 C 15.613281 29.039062 16.085938 28.152344 17.679688 27.730469 C 19.039062 27.371094 20.203125 27.183594 20.589844 25.605469 C 20.9375 24.179688 21.023438 22.992188 22.355469 21.980469 C 23.457031 21.144531 24.988281 20.855469 25.914062 19.816406 C 26.878906 18.734375 27.015625 17.117188 26.546875 15.789062 " fill-opacity="1" fill-rule="nonzero"/></svg>