<svg xmlns="http://www.w3.org/2000/svg" xmlns:xlink="http://www.w3.org/1999/xlink" width="46" zoomAndPan="magnify" viewBox="0 0 34.5 37.499999" height="50" preserveAspectRatio="xMidYMid meet" version="1.0"><defs><clipPath id="181c20e3d0"><path d="M 0 0.0195312 L 33 0.0195312 L 33 36.246094 L 0 36.246094 Z M 0 0.0195312 " clip-rule="nonzero"/></clipPath></defs><g clip-path="url(#181c20e3d0)"><path fill="#edbbbe" d="M 30.75 25.808594 C 30.75 25.875 30.730469 25.957031 30.691406 26.03125 C 30.519531 26.027344 30.34375 26.023438 30.1875 26.019531 C 29.882812 26.011719 29.695312 26.007812 29.574219 26.003906 C 29.882812 25.660156 30.21875 25.351562 30.585938 25.070312 C 30.679688 25.21875 30.753906 25.34375 30.8125 25.441406 C 30.769531 25.558594 30.746094 25.683594 30.75 25.808594 Z M 29.4375 27.929688 C 29.445312 27.929688 29.457031 27.929688 29.46875 27.929688 C 29.460938 27.929688 29.449219 27.929688 29.4375 27.929688 Z M 26.402344 25.105469 L 28.957031 23.113281 C 28.972656 23.101562 28.988281 23.089844 29 23.078125 C 29.042969 23.042969 29.082031 23 29.117188 22.957031 C 29.226562 23.109375 29.339844 23.265625 29.449219 23.410156 C 29.460938 23.4375 29.472656 23.460938 29.488281 23.488281 L 29.484375 23.488281 C 28.75 24.039062 28.105469 24.699219 27.5625 25.441406 C 27.175781 25.328125 26.785156 25.214844 26.402344 25.105469 Z M 23.191406 24.183594 C 24.515625 22.839844 25.84375 21.507812 27.175781 20.183594 L 28.066406 21.4375 C 27.96875 21.46875 27.871094 21.519531 27.785156 21.589844 L 24.113281 24.453125 Z M 15.335938 32.625 L 14.691406 33.601562 L 14.34375 34.121094 L 14.335938 34.132812 L 14.292969 34.1875 C 14.285156 34.195312 14.273438 34.203125 14.265625 34.210938 C 14.257812 34.214844 14.25 34.21875 14.242188 34.222656 C 14.234375 34.226562 14.226562 34.230469 14.21875 34.234375 L 14.210938 34.238281 L 14.207031 34.238281 C 14.144531 34.253906 14.078125 34.246094 14.027344 34.21875 L 14.007812 34.207031 C 13.964844 34.183594 13.925781 34.132812 13.917969 34.101562 L 13.90625 34.054688 C 13.90625 34.046875 13.90625 34.039062 13.90625 34.03125 L 13.902344 33.949219 L 13.902344 33.910156 C 14.554688 33.207031 15.210938 32.503906 15.871094 31.800781 C 15.707031 32.058594 15.527344 32.335938 15.335938 32.625 Z M 9.242188 20.207031 C 12.742188 16.695312 16.113281 12.984375 19.277344 9.164062 C 19.566406 9.574219 19.851562 9.96875 20.046875 10.210938 L 11.441406 20.832031 L 9.246094 20.207031 Z M 6.203125 19.363281 C 6.128906 19.34375 6.054688 19.324219 5.984375 19.300781 L 9.921875 15.050781 C 10.03125 14.933594 10.105469 14.796875 10.144531 14.652344 C 10.203125 14.628906 10.277344 14.601562 10.375 14.566406 C 10.617188 14.472656 10.996094 14.332031 11.613281 14.101562 L 11.917969 14.003906 C 11.96875 13.988281 12.023438 13.964844 12.070312 13.941406 L 12.164062 13.890625 C 12.300781 13.851562 12.46875 13.796875 12.6875 13.722656 L 12.800781 13.679688 C 11.023438 15.632812 9.199219 17.542969 7.335938 19.390625 C 7.265625 19.460938 7.210938 19.539062 7.164062 19.621094 C 6.796875 19.519531 6.492188 19.433594 6.300781 19.382812 C 6.265625 19.375 6.234375 19.367188 6.203125 19.363281 Z M 2.765625 18.339844 L 2.738281 18.332031 C 2.664062 18.3125 2.59375 18.296875 2.523438 18.296875 L 2.292969 18.230469 L 2.164062 18.183594 L 2.160156 18.183594 C 2.152344 18.179688 2.136719 18.171875 2.109375 18.152344 C 2.066406 18.128906 2.003906 18.046875 1.992188 17.945312 L 1.988281 17.929688 C 1.984375 17.898438 1.984375 17.84375 2.011719 17.777344 C 2.027344 17.726562 2.066406 17.675781 2.105469 17.644531 C 2.125 17.632812 2.144531 17.617188 2.160156 17.601562 C 2.167969 17.597656 2.179688 17.59375 2.1875 17.589844 C 2.238281 17.578125 2.292969 17.5625 2.347656 17.542969 C 2.417969 17.519531 2.511719 17.488281 2.613281 17.453125 C 2.753906 17.40625 2.996094 17.324219 3.054688 17.304688 C 3.148438 17.277344 3.234375 17.238281 3.3125 17.1875 C 3.523438 17.109375 3.84375 16.992188 4.023438 16.925781 C 4.113281 16.890625 4.191406 16.863281 4.253906 16.839844 C 4.394531 16.796875 4.597656 16.722656 4.96875 16.582031 C 5.105469 16.527344 5.308594 16.453125 5.386719 16.425781 C 5.429688 16.414062 5.46875 16.402344 5.511719 16.386719 C 5.589844 16.355469 5.644531 16.332031 5.679688 16.320312 C 5.722656 16.300781 5.761719 16.28125 5.800781 16.257812 C 5.992188 16.191406 6.179688 16.117188 6.382812 16.042969 L 3.933594 18.683594 C 3.617188 18.585938 3.21875 18.46875 2.765625 18.339844 Z M 13.617188 2.351562 C 13.621094 2.335938 13.621094 2.320312 13.625 2.304688 L 13.640625 2.242188 L 13.664062 2.195312 C 13.675781 2.179688 13.6875 2.164062 13.695312 2.148438 C 13.75 2.082031 13.835938 2.035156 13.933594 2.019531 C 14.015625 2.007812 14.109375 2.027344 14.175781 2.070312 C 14.191406 2.082031 14.210938 2.097656 14.230469 2.117188 C 14.261719 2.148438 14.285156 2.175781 14.296875 2.191406 L 16.078125 4.6875 L 13.636719 7.171875 L 13.621094 3.824219 L 13.617188 2.398438 Z M 13.703125 12.183594 C 13.699219 12.0625 13.699219 11.925781 13.699219 11.734375 C 13.699219 11.515625 13.699219 11.246094 13.6875 10.875 C 13.6875 10.792969 13.671875 10.710938 13.652344 10.636719 L 13.648438 9.839844 C 13.707031 9.808594 13.765625 9.769531 13.820312 9.722656 C 13.835938 9.707031 13.855469 9.691406 13.871094 9.671875 L 17.199219 6.296875 L 17.640625 6.898438 C 17.675781 6.945312 17.710938 6.988281 17.75 7.027344 C 17.761719 7.042969 17.773438 7.0625 17.789062 7.078125 C 17.925781 7.273438 18.03125 7.421875 18.125 7.539062 C 16.683594 9.285156 15.203125 11.011719 13.683594 12.707031 C 13.683594 12.691406 13.6875 12.679688 13.6875 12.664062 L 13.6875 12.566406 C 13.691406 12.449219 13.695312 12.402344 13.695312 12.386719 C 13.707031 12.320312 13.710938 12.253906 13.703125 12.183594 Z M 23.945312 9.609375 L 13.839844 22.789062 L 13.835938 22.382812 L 13.832031 22.367188 L 13.828125 22.210938 C 13.820312 21.898438 13.664062 21.617188 13.417969 21.445312 L 22.617188 10.09375 C 22.933594 9.976562 23.402344 9.808594 23.945312 9.609375 Z M 28.898438 7.796875 C 28.996094 7.761719 29.070312 7.730469 29.117188 7.710938 C 29.132812 7.707031 29.148438 7.703125 29.164062 7.695312 C 29.261719 7.667969 29.394531 7.628906 29.707031 7.523438 C 29.714844 7.519531 29.722656 7.519531 29.730469 7.515625 L 29.839844 7.476562 L 29.933594 7.445312 C 29.886719 7.484375 29.84375 7.527344 29.804688 7.574219 L 13.863281 27.410156 L 13.855469 25.761719 C 13.929688 25.722656 14.003906 25.675781 14.066406 25.621094 C 14.117188 25.578125 14.160156 25.53125 14.199219 25.480469 L 27.308594 8.378906 C 27.609375 8.269531 27.890625 8.167969 28.136719 8.078125 C 28.453125 7.960938 28.714844 7.863281 28.898438 7.796875 Z M 13.886719 31.105469 L 13.882812 30.457031 L 26.359375 14.933594 L 25.347656 16.617188 C 25.148438 16.949219 25.164062 17.367188 25.390625 17.679688 L 26.042969 18.597656 C 21.925781 22.675781 17.847656 26.871094 13.886719 31.105469 Z M 32.183594 24 C 32.152344 23.921875 32.113281 23.847656 32.0625 23.78125 L 31.855469 23.496094 C 31.828125 23.425781 31.792969 23.359375 31.75 23.296875 L 31.246094 22.578125 C 31.234375 22.5625 31.222656 22.546875 31.210938 22.53125 C 31.175781 22.488281 31.140625 22.449219 31.101562 22.414062 C 30.902344 22.148438 30.683594 21.855469 30.5 21.585938 L 30.492188 21.574219 C 30.402344 21.449219 30.355469 21.386719 30.335938 21.351562 C 30.28125 21.238281 30.199219 21.113281 29.957031 20.777344 L 27.316406 17.070312 L 31.203125 10.589844 C 31.234375 10.550781 31.265625 10.511719 31.292969 10.464844 L 32.105469 9.089844 C 32.320312 8.722656 32.433594 8.289062 32.429688 7.867188 C 32.425781 7.015625 31.960938 6.222656 31.21875 5.804688 C 30.847656 5.59375 30.429688 5.484375 30.007812 5.496094 C 29.992188 5.496094 29.972656 5.496094 29.957031 5.496094 C 29.777344 5.511719 29.585938 5.53125 29.382812 5.597656 L 29.308594 5.617188 L 29.296875 5.621094 C 29.253906 5.636719 29.222656 5.644531 29.195312 5.65625 L 29.082031 5.699219 C 28.820312 5.789062 28.71875 5.816406 28.640625 5.839844 L 28.59375 5.851562 L 28.585938 5.855469 C 28.535156 5.867188 28.492188 5.886719 28.449219 5.90625 C 28.246094 5.984375 27.292969 6.335938 25.152344 7.117188 L 23.367188 7.765625 C 22.347656 8.136719 21.574219 8.421875 21.535156 8.433594 C 21.457031 8.460938 21.382812 8.5 21.316406 8.550781 C 21.285156 8.5625 21.253906 8.570312 21.226562 8.582031 C 21.050781 8.34375 20.851562 8.058594 20.683594 7.824219 C 20.417969 7.445312 20.183594 7.113281 20.039062 6.929688 C 20.027344 6.910156 20.015625 6.894531 20.003906 6.875 L 19.878906 6.699219 C 19.847656 6.652344 19.816406 6.609375 19.792969 6.570312 C 19.753906 6.492188 19.699219 6.417969 19.636719 6.351562 C 19.589844 6.296875 19.445312 6.09375 19.351562 5.960938 C 19.257812 5.828125 19.160156 5.691406 19.066406 5.5625 C 19.058594 5.554688 19.054688 5.546875 19.046875 5.539062 C 19.011719 5.492188 18.976562 5.453125 18.9375 5.417969 L 18.726562 5.132812 C 18.699219 5.066406 18.667969 5.003906 18.625 4.945312 L 15.84375 1.054688 L 15.828125 1.03125 C 15.765625 0.945312 15.679688 0.847656 15.632812 0.796875 C 15.613281 0.773438 15.59375 0.753906 15.574219 0.734375 C 15.472656 0.640625 15.382812 0.566406 15.292969 0.5 L 15.277344 0.488281 C 14.804688 0.15625 14.203125 0.0195312 13.628906 0.113281 L 13.613281 0.113281 C 13.027344 0.214844 12.511719 0.527344 12.164062 0.988281 C 12.15625 1 12.148438 1.007812 12.140625 1.019531 L 12.128906 1.035156 C 12.070312 1.117188 11.984375 1.238281 11.914062 1.402344 L 11.914062 1.40625 C 11.894531 1.449219 11.867188 1.507812 11.839844 1.574219 C 11.832031 1.597656 11.824219 1.621094 11.816406 1.644531 L 11.785156 1.761719 C 11.734375 1.921875 11.71875 2.066406 11.710938 2.164062 L 11.707031 2.199219 C 11.695312 2.289062 11.695312 2.351562 11.695312 2.40625 L 11.738281 12.003906 C 11.667969 12.027344 11.609375 12.046875 11.5625 12.058594 C 11.496094 12.074219 11.433594 12.101562 11.371094 12.132812 L 11.265625 12.1875 L 11.015625 12.265625 C 11 12.269531 10.980469 12.277344 10.964844 12.28125 C 10.332031 12.519531 9.949219 12.664062 9.703125 12.757812 C 9.292969 12.910156 9.292969 12.910156 9.183594 12.949219 C 9.054688 12.996094 8.792969 13.085938 7.761719 13.460938 C 7.0625 13.71875 6.550781 13.914062 6.097656 14.085938 C 5.613281 14.273438 5.230469 14.417969 4.816406 14.5625 C 4.761719 14.582031 4.707031 14.609375 4.652344 14.640625 C 4.558594 14.675781 4.441406 14.71875 4.289062 14.777344 C 4.109375 14.84375 3.8125 14.957031 3.726562 14.984375 C 3.691406 14.992188 3.660156 15.003906 3.628906 15.015625 C 3.5625 15.039062 3.46875 15.074219 3.363281 15.113281 C 3.160156 15.1875 2.90625 15.28125 2.707031 15.355469 C 2.601562 15.394531 2.507812 15.433594 2.441406 15.460938 C 2.390625 15.480469 2.347656 15.5 2.304688 15.523438 C 2.222656 15.550781 2.121094 15.585938 2 15.625 C 1.9375 15.632812 1.875 15.652344 1.808594 15.671875 L 1.539062 15.769531 C 1.523438 15.777344 1.507812 15.78125 1.492188 15.789062 C 1.417969 15.820312 1.335938 15.855469 1.257812 15.894531 C 1.234375 15.90625 1.214844 15.917969 1.195312 15.929688 C 1.105469 15.980469 1.027344 16.035156 0.96875 16.078125 L 0.953125 16.089844 C 0.9375 16.097656 0.925781 16.109375 0.914062 16.117188 C 0.558594 16.394531 0.292969 16.785156 0.164062 17.214844 C 0.152344 17.257812 0.140625 17.304688 0.136719 17.351562 C 0.0664062 17.625 0.0507812 17.910156 0.0898438 18.1875 C 0.171875 18.859375 0.558594 19.464844 1.109375 19.800781 C 1.21875 19.867188 1.351562 19.945312 1.515625 20 L 1.621094 20.039062 C 1.640625 20.046875 1.660156 20.054688 1.679688 20.058594 L 2.070312 20.171875 C 2.304688 20.238281 2.503906 20.292969 2.699219 20.339844 C 2.742188 20.351562 2.78125 20.359375 2.824219 20.363281 C 2.835938 20.367188 2.851562 20.371094 2.863281 20.375 C 2.9375 20.421875 3.015625 20.457031 3.105469 20.484375 C 4.410156 20.863281 5.136719 21.070312 6.171875 21.355469 C 6.210938 21.367188 6.25 21.375 6.285156 21.378906 C 6.902344 21.550781 7.839844 21.816406 8.726562 22.066406 L 11.925781 22.972656 L 11.945312 24.195312 L 11.949219 24.199219 C 11.9375 24.238281 11.933594 24.28125 11.929688 24.324219 C 11.929688 24.367188 11.925781 24.40625 11.929688 24.449219 L 11.960938 29.78125 C 11.675781 30.140625 11.6875 30.644531 11.96875 30.988281 L 11.984375 33.980469 C 11.984375 33.992188 11.984375 34.003906 11.984375 34.015625 L 11.992188 34.128906 C 11.992188 34.140625 11.992188 34.148438 11.992188 34.160156 L 11.992188 34.171875 C 11.996094 34.210938 12 34.277344 12.011719 34.355469 C 12.015625 34.375 12.015625 34.390625 12.019531 34.40625 L 12.046875 34.523438 L 12.050781 34.535156 C 12.179688 35.097656 12.5625 35.601562 13.070312 35.890625 C 13.535156 36.160156 14.105469 36.242188 14.632812 36.121094 C 14.78125 36.089844 14.894531 36.042969 14.964844 36.011719 C 14.976562 36.007812 14.984375 36.003906 14.992188 36 C 15.023438 35.988281 15.054688 35.972656 15.082031 35.960938 C 15.1875 35.90625 15.289062 35.84375 15.398438 35.769531 C 15.425781 35.75 15.453125 35.726562 15.484375 35.703125 L 15.511719 35.675781 C 15.570312 35.625 15.660156 35.550781 15.746094 35.445312 L 15.757812 35.433594 L 15.824219 35.347656 L 15.832031 35.339844 C 15.867188 35.296875 15.90625 35.246094 15.941406 35.191406 L 16.277344 34.691406 L 16.9375 33.6875 C 17.566406 32.726562 18.078125 31.917969 18.421875 31.386719 C 18.496094 31.269531 18.558594 31.167969 18.617188 31.082031 C 18.6875 31.019531 18.753906 30.941406 18.804688 30.855469 C 19.097656 30.386719 19.160156 30.277344 19.210938 30.183594 C 19.234375 30.140625 19.253906 30.105469 19.308594 30.019531 C 19.355469 29.96875 19.398438 29.914062 19.433594 29.855469 C 19.507812 29.734375 19.582031 29.617188 19.648438 29.515625 C 19.875 29.148438 19.933594 29.058594 19.976562 28.875 L 20.03125 28.785156 C 20.074219 28.738281 20.113281 28.6875 20.148438 28.632812 C 20.207031 28.542969 20.257812 28.445312 20.324219 28.324219 C 20.457031 28.085938 20.660156 27.722656 21.070312 27.066406 L 21.851562 25.804688 L 23.285156 26.21875 C 23.347656 26.253906 23.414062 26.28125 23.484375 26.304688 L 23.6875 26.363281 C 23.898438 26.421875 24.160156 26.5 24.316406 26.550781 C 24.382812 26.570312 24.445312 26.585938 24.511719 26.59375 C 24.5625 26.605469 24.613281 26.621094 24.648438 26.632812 L 24.796875 26.671875 C 24.84375 26.6875 24.886719 26.695312 24.929688 26.703125 C 25.640625 26.890625 26.449219 27.125 27.234375 27.355469 C 27.933594 27.558594 28.59375 27.753906 29.152344 27.902344 C 29.246094 27.925781 29.339844 27.933594 29.433594 27.933594 C 29.507812 27.929688 29.84375 27.941406 30.140625 27.949219 C 30.335938 27.953125 30.554688 27.957031 30.777344 27.964844 C 31.292969 28.007812 31.699219 27.828125 31.976562 27.585938 C 32.128906 27.449219 32.246094 27.296875 32.320312 27.148438 C 32.324219 27.136719 32.332031 27.128906 32.335938 27.117188 C 32.378906 27.023438 32.410156 26.929688 32.433594 26.839844 C 32.476562 26.746094 32.515625 26.652344 32.546875 26.558594 C 32.59375 26.519531 32.636719 26.472656 32.675781 26.429688 C 33.214844 25.789062 32.832031 25.011719 32.183594 24 " fill-opacity="1" fill-rule="nonzero"/></g></svg>