<svg xmlns="http://www.w3.org/2000/svg" xmlns:xlink="http://www.w3.org/1999/xlink" width="73" zoomAndPan="magnify" viewBox="0 0 54.75 50.999998" height="68" preserveAspectRatio="xMidYMid meet" version="1.0"><defs><clipPath id="a77ff722cb"><path d="M 35 0.15625 L 43 0.15625 L 43 9 L 35 9 Z M 35 0.15625 " clip-rule="nonzero"/></clipPath><clipPath id="0de32c707b"><path d="M 45 17 L 53.753906 17 L 53.753906 22 L 45 22 Z M 45 17 " clip-rule="nonzero"/></clipPath><clipPath id="96680d764c"><path d="M 35 0.117188 L 43 0.117188 L 43 9 L 35 9 Z M 35 0.117188 " clip-rule="nonzero"/></clipPath><clipPath id="ac12254cd2"><path d="M 45 17 L 53.753906 17 L 53.753906 22 L 45 22 Z M 45 17 " clip-rule="nonzero"/></clipPath></defs><path fill="#e67aa2" d="M 22.355469 28.460938 C 22.1875 29.269531 21.402344 29.78125 20.601562 29.613281 C 19.804688 29.441406 19.296875 28.644531 19.464844 27.835938 C 20.105469 24.804688 21.4375 23.148438 22.882812 22.382812 C 24.757812 21.386719 26.996094 21.785156 28.890625 23.1875 C 31.246094 24.933594 33.007812 28.242188 32.570312 31.574219 C 32.277344 33.789062 31.046875 36.050781 28.300781 37.851562 C 24.1875 40.542969 19.007812 38.859375 15.316406 35.042969 C 12.132812 31.753906 10.125 26.945312 10.882812 22.535156 C 11.40625 19.515625 13.183594 16.632812 16.8125 14.515625 C 29.335938 7.203125 41.761719 19.015625 40.699219 31.703125 C 40.253906 37.046875 37.429688 42.550781 31.125 46.730469 C 29.886719 47.550781 22.8125 50.925781 16.316406 48.390625 C 4.851562 43.914062 2.554688 30.777344 2.175781 28.882812 C -0.00390625 18.035156 5.820312 12.65625 10.328125 8.09375 C 10.902344 7.511719 11.839844 7.507812 12.417969 8.089844 C 12.996094 8.671875 12.996094 9.621094 12.421875 10.207031 C 8.480469 14.195312 3.171875 18.804688 5.074219 28.289062 C 5.410156 29.960938 7.277344 41.65625 17.382812 45.601562 C 22.699219 47.675781 28.488281 44.902344 29.503906 44.230469 C 34.882812 40.660156 37.371094 36.011719 37.753906 31.449219 C 38.625 21.03125 28.578125 11.097656 18.289062 17.101562 C 11.390625 21.132812 13.285156 28.667969 17.433594 32.953125 C 20.089844 35.699219 23.734375 37.277344 26.691406 35.339844 C 29.957031 33.203125 30.164062 30.167969 29.027344 27.890625 C 28.414062 26.65625 27.4375 25.640625 26.367188 25.132812 C 25.800781 24.859375 25.207031 24.734375 24.648438 24.878906 C 23.578125 25.152344 22.808594 26.320312 22.355469 28.460938 Z M 22.355469 28.460938 " fill-opacity="1" fill-rule="evenodd"/><g clip-path="url(#a77ff722cb)"><path fill="#e67aa2" d="M 38.652344 8.105469 C 38.183594 8.78125 37.261719 8.945312 36.589844 8.472656 C 35.921875 8 35.761719 7.066406 36.230469 6.390625 L 39.960938 1 C 40.433594 0.324219 41.355469 0.160156 42.023438 0.632812 C 42.691406 1.105469 42.855469 2.039062 42.386719 2.714844 Z M 38.652344 8.105469 " fill-opacity="1" fill-rule="evenodd"/></g><path fill="#e67aa2" d="M 43.976562 14.453125 C 43.355469 14.988281 42.421875 14.914062 41.890625 14.285156 C 41.359375 13.65625 41.4375 12.710938 42.058594 12.175781 C 44.695312 9.90625 44.550781 9.855469 47.507812 7.910156 C 48.191406 7.460938 49.109375 7.65625 49.554688 8.347656 C 50 9.039062 49.808594 9.964844 49.125 10.414062 C 46.328125 12.253906 46.46875 12.308594 43.976562 14.453125 Z M 43.976562 14.453125 " fill-opacity="1" fill-rule="evenodd"/><g clip-path="url(#0de32c707b)"><path fill="#e67aa2" d="M 47.554688 21.597656 C 46.765625 21.800781 45.957031 21.316406 45.757812 20.519531 C 45.554688 19.71875 46.035156 18.902344 46.824219 18.699219 L 51.75 17.429688 C 52.542969 17.226562 53.347656 17.707031 53.546875 18.507812 C 53.75 19.308594 53.273438 20.121094 52.480469 20.324219 Z M 47.554688 21.597656 " fill-opacity="1" fill-rule="evenodd"/></g><path fill="#e67aa2" d="M 22.355469 28.421875 C 22.1875 29.226562 21.402344 29.742188 20.601562 29.570312 C 19.804688 29.398438 19.296875 28.605469 19.464844 27.796875 C 20.105469 24.765625 21.4375 23.105469 22.882812 22.34375 C 24.757812 21.347656 26.996094 21.746094 28.890625 23.148438 C 31.246094 24.894531 33.007812 28.203125 32.570312 31.535156 C 32.277344 33.75 31.046875 36.011719 28.300781 37.8125 C 24.1875 40.5 19.007812 38.820312 15.316406 35.003906 C 12.132812 31.710938 10.125 26.90625 10.882812 22.496094 C 11.40625 19.472656 13.183594 16.59375 16.8125 14.476562 C 29.335938 7.164062 41.761719 18.976562 40.699219 31.664062 C 40.253906 37.007812 37.429688 42.511719 31.125 46.691406 C 29.886719 47.511719 22.8125 50.882812 16.316406 48.347656 C 4.851562 43.875 2.554688 30.738281 2.175781 28.84375 C -0.00390625 17.996094 5.820312 12.617188 10.328125 8.054688 C 10.902344 7.46875 11.839844 7.46875 12.417969 8.050781 C 12.996094 8.632812 12.996094 9.582031 12.421875 10.167969 C 8.480469 14.15625 3.171875 18.765625 5.074219 28.25 C 5.410156 29.921875 7.277344 41.617188 17.382812 45.558594 C 22.699219 47.636719 28.488281 44.863281 29.503906 44.1875 C 34.882812 40.621094 37.371094 35.972656 37.753906 31.410156 C 38.625 20.988281 28.578125 11.054688 18.289062 17.0625 C 11.390625 21.089844 13.285156 28.625 17.433594 32.910156 C 20.089844 35.660156 23.734375 37.238281 26.691406 35.300781 C 29.957031 33.164062 30.164062 30.125 29.027344 27.851562 C 28.414062 26.617188 27.4375 25.601562 26.367188 25.089844 C 25.800781 24.820312 25.207031 24.695312 24.648438 24.839844 C 23.578125 25.113281 22.808594 26.28125 22.355469 28.421875 Z M 22.355469 28.421875 " fill-opacity="1" fill-rule="evenodd"/><g clip-path="url(#96680d764c)"><path fill="#e67aa2" d="M 38.652344 8.066406 C 38.183594 8.742188 37.261719 8.90625 36.589844 8.433594 C 35.921875 7.960938 35.761719 7.027344 36.230469 6.351562 L 39.960938 0.960938 C 40.433594 0.285156 41.355469 0.121094 42.023438 0.59375 C 42.691406 1.066406 42.855469 1.996094 42.386719 2.675781 Z M 38.652344 8.066406 " fill-opacity="1" fill-rule="evenodd"/></g><path fill="#e67aa2" d="M 43.976562 14.414062 C 43.355469 14.949219 42.421875 14.875 41.890625 14.242188 C 41.359375 13.617188 41.4375 12.671875 42.058594 12.136719 C 44.695312 9.867188 44.550781 9.816406 47.507812 7.871094 C 48.191406 7.417969 49.109375 7.617188 49.554688 8.308594 C 50 9 49.808594 9.925781 49.125 10.375 C 46.328125 12.214844 46.46875 12.269531 43.976562 14.414062 Z M 43.976562 14.414062 " fill-opacity="1" fill-rule="evenodd"/><g clip-path="url(#ac12254cd2)"><path fill="#e67aa2" d="M 47.554688 21.558594 C 46.765625 21.761719 45.957031 21.277344 45.757812 20.480469 C 45.554688 19.679688 46.035156 18.863281 46.824219 18.660156 L 51.75 17.390625 C 52.542969 17.1875 53.347656 17.667969 53.546875 18.46875 C 53.75 19.269531 53.273438 20.082031 52.480469 20.285156 Z M 47.554688 21.558594 " fill-opacity="1" fill-rule="evenodd"/></g></svg>